<svg xmlns="http://www.w3.org/2000/svg" xmlns:xlink="http://www.w3.org/1999/xlink" viewBox="0 0 262.54 213.36"><defs><style>.cls-1{isolation:isolate;}.cls-2{fill:url(#Degradado_sin_nombre_64);}.cls-3,.cls-4{mix-blend-mode:overlay;}.cls-3{fill:url(#Degradado_sin_nombre_64-2);}.cls-4{fill:url(#Degradado_sin_nombre_64-3);}.cls-5{fill:#fff;}.cls-6{fill:#f0f2da;}.cls-7{fill:#1cb59b;}.cls-8{fill:#3bd1b4;}.cls-9{fill:#52efd9;}.cls-10{fill:#e7ffcf;}.cls-11{fill:#25ccb8;}.cls-12{fill:#124849;}.cls-13{fill:url(#Degradado_sin_nombre_56);}.cls-14{fill:url(#Degradado_sin_nombre_43);}.cls-15{fill:url(#Degradado_sin_nombre_43-2);}.cls-16{fill:url(#Degradado_sin_nombre_56-2);}.cls-17{fill:url(#Degradado_sin_nombre_43-3);}.cls-18{fill:url(#Degradado_sin_nombre_43-4);}.cls-19{fill:url(#Degradado_sin_nombre_43-5);}.cls-20{fill:url(#Degradado_sin_nombre_43-6);}.cls-21{fill:url(#Degradado_sin_nombre_56-3);}.cls-22{fill:url(#Degradado_sin_nombre_20);}.cls-23{fill:url(#Degradado_sin_nombre_16);}.cls-24{fill:url(#Degradado_sin_nombre_16-2);}.cls-25{fill:url(#Degradado_sin_nombre_20-2);}.cls-26{fill:url(#Degradado_sin_nombre_16-3);}.cls-27{fill:url(#Degradado_sin_nombre_20-3);}.cls-28{fill:url(#Degradado_sin_nombre_89);}.cls-29{fill:url(#Degradado_sin_nombre_89-2);}.cls-30{fill:url(#Degradado_sin_nombre_16-4);}.cls-31{fill:url(#Degradado_sin_nombre_43-7);}.cls-32{fill:url(#Degradado_sin_nombre_43-8);}.cls-33{fill:url(#Degradado_sin_nombre_56-4);}.cls-34{fill:url(#Degradado_sin_nombre_56-5);}.cls-35{fill:url(#Degradado_sin_nombre_43-9);}.cls-36{fill:url(#Degradado_sin_nombre_43-10);}.cls-37{fill:url(#Degradado_sin_nombre_43-11);}.cls-38{fill:url(#Degradado_sin_nombre_56-6);}.cls-39{fill:url(#Degradado_sin_nombre_43-12);}.cls-40{fill:url(#Degradado_sin_nombre_36);}.cls-41{fill:url(#Degradado_sin_nombre_28);}.cls-42{fill:url(#Degradado_sin_nombre_89-3);}.cls-43{fill:url(#Degradado_sin_nombre_89-4);}.cls-44{fill:url(#Degradado_sin_nombre_16-5);}.cls-45{fill:url(#Degradado_sin_nombre_89-5);}.cls-46{fill:url(#Degradado_sin_nombre_89-6);}.cls-47{fill:url(#Degradado_sin_nombre_16-6);}.cls-48{fill:url(#Degradado_sin_nombre_16-7);}.cls-49{fill:url(#Degradado_sin_nombre_89-7);}.cls-50{fill:url(#Degradado_sin_nombre_89-8);}.cls-51{fill:url(#Degradado_sin_nombre_43-13);}.cls-52{fill:url(#Degradado_sin_nombre_43-14);}.cls-53{fill:url(#Degradado_sin_nombre_43-15);}.cls-54{fill:url(#Degradado_sin_nombre_43-16);}.cls-55{fill:url(#Degradado_sin_nombre_56-7);}.cls-56{fill:url(#Degradado_sin_nombre_43-17);}.cls-57{fill:url(#Degradado_sin_nombre_43-18);}.cls-58{fill:url(#Degradado_sin_nombre_43-19);}.cls-59{fill:url(#Degradado_sin_nombre_28-2);}.cls-60{fill:url(#Degradado_sin_nombre_36-2);}.cls-61{fill:url(#Degradado_sin_nombre_36-3);}.cls-62{fill:url(#Degradado_sin_nombre_89-9);}.cls-63{fill:url(#Degradado_sin_nombre_16-8);}.cls-64{fill:url(#Degradado_sin_nombre_20-4);}.cls-65{fill:url(#Degradado_sin_nombre_89-10);}.cls-66{fill:url(#Degradado_sin_nombre_20-5);}.cls-67{fill:url(#Degradado_sin_nombre_89-11);}</style><linearGradient id="Degradado_sin_nombre_64" x1="112.53" y1="250.92" x2="348.76" y2="261.44" gradientUnits="userSpaceOnUse"><stop offset="0" stop-color="#d5ff94"/><stop offset="1" stop-color="#00baaa"/></linearGradient><linearGradient id="Degradado_sin_nombre_64-2" x1="232.71" y1="163.18" x2="229.87" y2="346.77" xlink:href="#Degradado_sin_nombre_64"/><linearGradient id="Degradado_sin_nombre_64-3" x1="142.1" y1="256.34" x2="340.46" y2="256.34" xlink:href="#Degradado_sin_nombre_64"/><linearGradient id="Degradado_sin_nombre_56" x1="323.78" y1="340.51" x2="330.22" y2="340.51" gradientUnits="userSpaceOnUse"><stop offset="0" stop-color="#ffd89f"/><stop offset="1" stop-color="#f98853"/></linearGradient><linearGradient id="Degradado_sin_nombre_43" x1="315.65" y1="336.05" x2="329.31" y2="336.05" gradientUnits="userSpaceOnUse"><stop offset="0" stop-color="#ffd89f"/><stop offset="1" stop-color="#f9b978"/></linearGradient><linearGradient id="Degradado_sin_nombre_43-2" x1="302.69" y1="337.72" x2="324.17" y2="337.72" xlink:href="#Degradado_sin_nombre_43"/><linearGradient id="Degradado_sin_nombre_56-2" x1="297.75" y1="252.98" x2="316.35" y2="252.98" xlink:href="#Degradado_sin_nombre_56"/><linearGradient id="Degradado_sin_nombre_43-3" x1="296.37" y1="272.04" x2="305.74" y2="272.04" xlink:href="#Degradado_sin_nombre_43"/><linearGradient id="Degradado_sin_nombre_43-4" x1="315.35" y1="256.63" x2="335.31" y2="256.63" xlink:href="#Degradado_sin_nombre_43"/><linearGradient id="Degradado_sin_nombre_43-5" x1="315.81" y1="259.26" x2="332.16" y2="259.26" xlink:href="#Degradado_sin_nombre_43"/><linearGradient id="Degradado_sin_nombre_43-6" x1="306.08" y1="274.5" x2="322.11" y2="274.5" xlink:href="#Degradado_sin_nombre_43"/><linearGradient id="Degradado_sin_nombre_56-3" x1="312.17" y1="279.13" x2="318.5" y2="279.13" xlink:href="#Degradado_sin_nombre_56"/><linearGradient id="Degradado_sin_nombre_20" x1="341.19" y1="359.97" x2="344.13" y2="273.8" gradientUnits="userSpaceOnUse"><stop offset="0" stop-color="#a03d49"/><stop offset="1" stop-color="#ff3f6e"/></linearGradient><linearGradient id="Degradado_sin_nombre_16" x1="330.37" y1="346.8" x2="329.02" y2="252.4" gradientUnits="userSpaceOnUse"><stop offset="0" stop-color="#ff5822"/><stop offset="1" stop-color="#ff3f6e"/></linearGradient><linearGradient id="Degradado_sin_nombre_16-2" x1="296.96" y1="347.28" x2="295.61" y2="252.88" xlink:href="#Degradado_sin_nombre_16"/><linearGradient id="Degradado_sin_nombre_20-2" x1="307.5" y1="358.83" x2="310.43" y2="272.66" xlink:href="#Degradado_sin_nombre_20"/><linearGradient id="Degradado_sin_nombre_16-3" x1="292.78" y1="347.34" x2="291.43" y2="252.94" xlink:href="#Degradado_sin_nombre_16"/><linearGradient id="Degradado_sin_nombre_20-3" x1="293.26" y1="358.34" x2="296.2" y2="272.17" xlink:href="#Degradado_sin_nombre_20"/><linearGradient id="Degradado_sin_nombre_89" x1="297.42" y1="304.92" x2="321.96" y2="304.92" gradientUnits="userSpaceOnUse"><stop offset="0" stop-color="#00cc9b"/><stop offset="1" stop-color="#00baaa"/></linearGradient><linearGradient id="Degradado_sin_nombre_89-2" x1="302.38" y1="299.63" x2="328.47" y2="299.63" xlink:href="#Degradado_sin_nombre_89"/><linearGradient id="Degradado_sin_nombre_16-4" x1="316.73" y1="347" x2="315.37" y2="252.6" xlink:href="#Degradado_sin_nombre_16"/><linearGradient id="Degradado_sin_nombre_43-7" x1="153.91" y1="340.06" x2="175.38" y2="340.06" xlink:href="#Degradado_sin_nombre_43"/><linearGradient id="Degradado_sin_nombre_43-8" x1="148.83" y1="338.4" x2="162.44" y2="338.4" xlink:href="#Degradado_sin_nombre_43"/><linearGradient id="Degradado_sin_nombre_56-4" x1="147.79" y1="342.86" x2="154.29" y2="342.86" xlink:href="#Degradado_sin_nombre_56"/><linearGradient id="Degradado_sin_nombre_56-5" x1="145.91" y1="261.61" x2="162.26" y2="261.61" xlink:href="#Degradado_sin_nombre_56"/><linearGradient id="Degradado_sin_nombre_43-9" x1="142.78" y1="258.98" x2="162.73" y2="258.98" xlink:href="#Degradado_sin_nombre_43"/><linearGradient id="Degradado_sin_nombre_43-10" x1="172.33" y1="274.39" x2="181.71" y2="274.39" xlink:href="#Degradado_sin_nombre_43"/><linearGradient id="Degradado_sin_nombre_43-11" x1="161.72" y1="255.32" x2="180.33" y2="255.32" xlink:href="#Degradado_sin_nombre_43"/><linearGradient id="Degradado_sin_nombre_56-6" x1="159.58" y1="281.5" x2="165.92" y2="281.5" xlink:href="#Degradado_sin_nombre_56"/><linearGradient id="Degradado_sin_nombre_43-12" x1="155.96" y1="276.36" x2="172" y2="276.36" xlink:href="#Degradado_sin_nombre_43"/><linearGradient id="Degradado_sin_nombre_36" x1="170" y1="370.22" x2="167.3" y2="272.77" gradientUnits="userSpaceOnUse"><stop offset="0" stop-color="#ffd86f"/><stop offset="1" stop-color="#faf3d5"/></linearGradient><linearGradient id="Degradado_sin_nombre_28" x1="164.73" y1="370.36" x2="162.03" y2="272.93" gradientUnits="userSpaceOnUse"><stop offset="0" stop-color="#ffd89f"/><stop offset="1" stop-color="#faf3d5"/></linearGradient><linearGradient id="Degradado_sin_nombre_89-3" x1="123.09" y1="334.78" x2="148.83" y2="334.78" xlink:href="#Degradado_sin_nombre_89"/><linearGradient id="Degradado_sin_nombre_89-4" x1="124.9" y1="332.09" x2="171.24" y2="332.09" xlink:href="#Degradado_sin_nombre_89"/><linearGradient id="Degradado_sin_nombre_16-5" x1="172.14" y1="351.24" x2="170.79" y2="256.84" xlink:href="#Degradado_sin_nombre_16"/><linearGradient id="Degradado_sin_nombre_89-5" x1="172.15" y1="329.99" x2="195.5" y2="329.99" xlink:href="#Degradado_sin_nombre_89"/><linearGradient id="Degradado_sin_nombre_89-6" x1="178.18" y1="336.67" x2="192.83" y2="336.67" xlink:href="#Degradado_sin_nombre_89"/><linearGradient id="Degradado_sin_nombre_16-6" x1="165.86" y1="351.34" x2="164.5" y2="256.93" xlink:href="#Degradado_sin_nombre_16"/><linearGradient id="Degradado_sin_nombre_16-7" x1="186.72" y1="351.04" x2="185.37" y2="256.63" xlink:href="#Degradado_sin_nombre_16"/><linearGradient id="Degradado_sin_nombre_89-7" x1="170.32" y1="328.1" x2="190.83" y2="328.1" xlink:href="#Degradado_sin_nombre_89"/><linearGradient id="Degradado_sin_nombre_89-8" x1="156.38" y1="329.42" x2="181.75" y2="329.42" xlink:href="#Degradado_sin_nombre_89"/><linearGradient id="Degradado_sin_nombre_43-13" x1="234.11" y1="199.93" x2="240.85" y2="199.93" xlink:href="#Degradado_sin_nombre_43"/><linearGradient id="Degradado_sin_nombre_43-14" x1="234.9" y1="234.95" x2="264.72" y2="234.95" xlink:href="#Degradado_sin_nombre_43"/><linearGradient id="Degradado_sin_nombre_43-15" x1="238.84" y1="243.3" x2="259.8" y2="243.3" xlink:href="#Degradado_sin_nombre_43"/><linearGradient id="Degradado_sin_nombre_43-16" x1="223.7" y1="274.07" x2="240.44" y2="274.07" xlink:href="#Degradado_sin_nombre_43"/><linearGradient id="Degradado_sin_nombre_56-7" x1="224.62" y1="260.55" x2="243.34" y2="260.55" xlink:href="#Degradado_sin_nombre_56"/><linearGradient id="Degradado_sin_nombre_43-17" x1="219.54" y1="246.63" x2="246.98" y2="246.63" xlink:href="#Degradado_sin_nombre_43"/><linearGradient id="Degradado_sin_nombre_43-18" x1="201.77" y1="234.74" x2="234.22" y2="234.74" xlink:href="#Degradado_sin_nombre_43"/><linearGradient id="Degradado_sin_nombre_43-19" x1="206.3" y1="232.97" x2="234.43" y2="232.97" xlink:href="#Degradado_sin_nombre_43"/><linearGradient id="Degradado_sin_nombre_28-2" x1="240.4" y1="359.84" x2="237.69" y2="262.39" xlink:href="#Degradado_sin_nombre_28"/><linearGradient id="Degradado_sin_nombre_36-2" x1="209.93" y1="360.56" x2="207.23" y2="263.49" xlink:href="#Degradado_sin_nombre_36"/><linearGradient id="Degradado_sin_nombre_36-3" x1="261.96" y1="359.24" x2="259.25" y2="261.79" xlink:href="#Degradado_sin_nombre_36"/><linearGradient id="Degradado_sin_nombre_89-9" x1="220.86" y1="238.41" x2="235.14" y2="238.41" xlink:href="#Degradado_sin_nombre_89"/><linearGradient id="Degradado_sin_nombre_16-8" x1="227.38" y1="342.07" x2="226.02" y2="247.67" xlink:href="#Degradado_sin_nombre_16"/><linearGradient id="Degradado_sin_nombre_20-4" x1="233.27" y1="349.67" x2="236.2" y2="263.51" xlink:href="#Degradado_sin_nombre_20"/><linearGradient id="Degradado_sin_nombre_89-10" x1="234.72" y1="237.98" x2="246.37" y2="237.98" xlink:href="#Degradado_sin_nombre_89"/><linearGradient id="Degradado_sin_nombre_20-5" x1="245.66" y1="350.1" x2="248.59" y2="263.93" xlink:href="#Degradado_sin_nombre_20"/><linearGradient id="Degradado_sin_nombre_89-11" x1="237.73" y1="270.86" x2="248.46" y2="270.86" xlink:href="#Degradado_sin_nombre_89"/></defs><g class="cls-1"><g id="BACKGROUND"><path class="cls-2" d="M357.28,300.21c-7.13,19.65-28.48,30-48.53,35.87a272,272,0,0,1-77.42,10.68c-14.87,3.4-30.19,3.21-43.61-3.3a324.57,324.57,0,0,1-45.55-10.11c-8.85-2.64-17.73-5.7-25.26-11S103.25,309,102,299.89c-1.63-11.91,5-23.28,11.92-33.1a315.39,315.39,0,0,1,28.82-35.35s0,0,0,0c0-1.05,0-2.09-.05-3.14v0c-.62-11.91-2.44-39.77,6.84-52.52,14.36-19.75,49.58-10.23,75.43-5.45a56.64,56.64,0,0,1,10-4.48h0q.62-.21,1.23-.39c12.18-3.66,25.55-1.86,37.27,3.09,11.24,4.74,21.12,12.21,30.12,20.47,13.85,5.19,26.94,12.75,33.19,25.78a39.6,39.6,0,0,1,3.68,18.76q4.72,7.6,8.79,15.61C357.26,264.93,363.34,283.52,357.28,300.21Z" transform="translate(-101.73 -163.45)"/><path class="cls-3" d="M357.28,300.22c-7.14,19.65-28.48,30-48.53,35.87-54,15.82-112.63,13.35-166.59-2.73-8.85-2.64-17.73-5.71-25.26-11S103.24,309,102,299.9c-1.63-11.91,5-23.28,11.91-33.11,28.65-40.67,63.8-71.78,107.27-94.28,0,0,0,0,0,0a64.13,64.13,0,0,1,13.7-6.69h0q.62-.21,1.23-.39c12.18-3.66,25.56-1.86,37.28,3.09S295.39,181.34,304.7,190a212.08,212.08,0,0,1,44.51,59.09C357.25,264.93,363.34,283.53,357.28,300.22Z" transform="translate(-101.73 -163.45)"/><path class="cls-4" d="M329.36,268.21A171.3,171.3,0,0,1,257.83,337c-22.41,11.37-50.14,17.41-72.22,5.42-21.25-11.53-31.38-36.34-37-59.86-4.1-17.18-5.77-35.69-5.93-54.24v0c-.62-11.91-2.44-39.76,6.83-52.52,15.54-21.36,55.47-8.48,81.55-4.4a463.29,463.29,0,0,1,61.37,13.93c17.53,5.25,36.41,13,44.32,29.48C344.83,231.61,338.49,251.87,329.36,268.21Z" transform="translate(-101.73 -163.45)"/><path class="cls-5" d="M270.91,365.86a5,5,0,0,1-4,2.2l-.55,0V368a14.22,14.22,0,0,0,.17-11.67l0-.12,1.28-.38a9.13,9.13,0,0,1,3.79,7.43A5.21,5.21,0,0,1,270.91,365.86Z" transform="translate(-101.73 -163.45)"/><path class="cls-6" d="M355.24,350.54c0,8.9-53.16,26.27-118.73,26.27s-118.73-17.37-118.73-26.27,53.16-16.1,118.73-16.1S355.24,341.65,355.24,350.54Z" transform="translate(-101.73 -163.45)"/><path class="cls-7" d="M324.46,326.41l.27-.26c0,.12,0,.24,0,.37Z" transform="translate(-101.73 -163.45)"/><path class="cls-8" d="M324.73,326.15a15,15,0,0,0-2.66-7.07,38.06,38.06,0,0,1-4-6.95,2.11,2.11,0,0,1-.07-1.75,1.55,1.55,0,0,1,2-.45,4.47,4.47,0,0,1,1.61,1.51,22.85,22.85,0,0,1-.88-10.64l3,2.3a21.78,21.78,0,0,1,.47-8.84c.24-.86.69-1.86,1.58-2s1.65.95,2.06,1.85a20.33,20.33,0,0,1,6.72-11.56c.91-.78,2.19-1.51,3.25-.94s1.16,2.05,1.07,3.27a57.3,57.3,0,0,1-1.8,10.64,5.73,5.73,0,0,1,2.44-1.24,2,2,0,0,1,2.23,1.2,2.89,2.89,0,0,1-.77,2.29q-2.81,3.88-5.9,7.53c1.08-.29,2.53-.42,3,.59.41.85-.26,1.81-.89,2.52q-2.6,2.91-5.39,5.65a1.58,1.58,0,0,1,2.12.64,2.59,2.59,0,0,1-.1,2.39,7.85,7.85,0,0,1-1.6,1.9Z" transform="translate(-101.73 -163.45)"/><path class="cls-9" d="M335.48,282.81A140.68,140.68,0,0,0,325,324.94c-.06.64.92.84,1,.2a140,140,0,0,1,10.38-41.89C336.63,282.65,335.73,282.21,335.48,282.81Z" transform="translate(-101.73 -163.45)"/><path class="cls-8" d="M148.34,310.16c1.33.81,1.73,2.3,2.06,3.71q1.69,7.29,2.79,14.7l.32,0-10.75,7.24a6.83,6.83,0,0,1-2.44,1.22c-1.47.3-3.35-.55-2.59-2.93a4.36,4.36,0,0,1,.61-1.22l3.45-5.1c.39-.57.78-1.34.21-1.88a1.18,1.18,0,0,0-1.08-.26,15.2,15.2,0,0,0-7.64,4.52,6.76,6.76,0,0,1-1.89,1.73c-1,.51-2.66.19-2.51-1.45a2.55,2.55,0,0,1,.32-1,27.82,27.82,0,0,1,3.93-5.52c.79-.87,1.68-2.22.69-3.05a1.5,1.5,0,0,0-1.55-.23A20.4,20.4,0,0,0,125.6,325a5.05,5.05,0,0,1-1.56,1.2c-.84.35-2.06.08-2-1.18a2.1,2.1,0,0,1,.51-1.28l4.11-4.95c.48-.59,1-1.36.47-2.06a1.37,1.37,0,0,0-1.6-.4,24.07,24.07,0,0,0-7.34,4.67,3.64,3.64,0,0,1-2.35,1.35,1.28,1.28,0,0,1-1.21-.69c-.32-.66.12-1.27.52-1.78l4.29-5.42a.46.46,0,0,0-.47-.74,17.84,17.84,0,0,0-7.23,3.82,5.44,5.44,0,0,1-1.68,1.18c-.91.32-2.19-.06-2-1.43a2.24,2.24,0,0,1,.42-1,37.57,37.57,0,0,1,4.25-4.84l-6.06-1.05c-1.47-.26-3.18-.67-3.64-2.22a2.66,2.66,0,0,1,1-2.8,5,5,0,0,1,5-.29,5.09,5.09,0,0,0,2.79.67,1.48,1.48,0,0,0,1.14-.85c.34-.8-.24-1.5-.67-2.17s-.62-1.42-.12-1.9a1.28,1.28,0,0,1,1-.28c1.34.15,2.28,1.4,2.87,2.61.73,1.48,1.29,3.19,3,3.81a1.89,1.89,0,0,0,2.41-.92c.4-.93-.21-1.82-.57-2.69s-.28-2.16.77-2.28a1.42,1.42,0,0,1,.89.23c1.9,1.19,2.68,3.42,3.59,5.42a9.45,9.45,0,0,0,2.36,3.41,1,1,0,0,0,1.67-.89l-.41-4.73c-.05-.53-.07-1.12.47-1.44a1,1,0,0,1,1,0,2.76,2.76,0,0,1,1.27,1.76l2.91,7.94c.33.91.81,2,1.86,2a1.77,1.77,0,0,0,1.76-1.35c.5-1.66-.46-3.1-.67-4.67-.13-.94.3-2.22,1.4-2a1.38,1.38,0,0,1,1,.94,46.81,46.81,0,0,1,1.78,8.18,4.28,4.28,0,0,0,1.18,3,1.49,1.49,0,0,0,2,0,2.28,2.28,0,0,0,.34-2.09c-.18-1.14-.37-2.29-.55-3.43s-.31-2.55.76-3.25A2.06,2.06,0,0,1,148.34,310.16Z" transform="translate(-101.73 -163.45)"/><path class="cls-9" d="M152.15,328.41a79.86,79.86,0,0,0-48.05-22.67c-.64-.06-.84.92-.2,1a79,79,0,0,1,47.6,22.45C152,329.62,152.6,328.86,152.15,328.41Z" transform="translate(-101.73 -163.45)"/><path class="cls-10" d="M354.46,295.64l0-.06,0,0a7.92,7.92,0,0,1,6.19,0c.48.24,1,.67.89,1.2a.94.94,0,0,1-.77.71,2.51,2.51,0,0,1-1.12-.08,30.33,30.33,0,0,1-5.09-1.83l-.09,0h-.06l-.11,0Z" transform="translate(-101.73 -163.45)"/><path class="cls-10" d="M355.24,303.39c.34.27.7.7.53,1.11a.72.72,0,0,1-.61.41,2,2,0,0,1-.76-.1,18.62,18.62,0,0,1-5.73-2.71l.1-.38A8.32,8.32,0,0,1,355.24,303.39Z" transform="translate(-101.73 -163.45)"/><path class="cls-10" d="M347.23,292.71c.33-.35.92-.21,1.34,0a5.09,5.09,0,0,1,2.09,2.82,14.06,14.06,0,0,1,.56,3.36,9.21,9.21,0,0,1,6.56.69c.37.19.77.49.72.9a.84.84,0,0,1-.61.62,3.07,3.07,0,0,1-1.77-.11,21.23,21.23,0,0,1-4.89-2v.08l-.19-.13h0l-.2-.14a32.58,32.58,0,0,1-3.5-4.7C347.09,293.68,346.88,293.08,347.23,292.71Z" transform="translate(-101.73 -163.45)"/><path class="cls-10" d="M346.5,309.82a6.14,6.14,0,0,1,3.65,2.51c.22.33.37.81.09,1.09a1,1,0,0,1-.93.08,24.48,24.48,0,0,1-7.38-3.43h0l0,.27a16.8,16.8,0,0,1-5.44-5.07,2.85,2.85,0,0,1-.53-1.11,1.17,1.17,0,0,1,.4-1.12,1.12,1.12,0,0,1,1-.08,2.82,2.82,0,0,1,.87.58A11.83,11.83,0,0,1,341.9,310l.09-.21A11.05,11.05,0,0,1,346.5,309.82Z" transform="translate(-101.73 -163.45)"/><path class="cls-10" d="M343.39,323.7c-.45.41-1.15.22-1.71,0a23.93,23.93,0,0,1-7.89-4.52l-.23.06c-2.42-1.48-3.82-4.13-5.08-6.68a4.19,4.19,0,0,1-.56-1.74,1.47,1.47,0,0,1,.9-1.46,2,2,0,0,1,1.87.82,12.52,12.52,0,0,1,3.11,8.91l.46-.22a11.17,11.17,0,0,1,8.59,2.66,2.62,2.62,0,0,1,.75,1A1.09,1.09,0,0,1,343.39,323.7Z" transform="translate(-101.73 -163.45)"/><path class="cls-10" d="M352.82,307.75a.81.81,0,0,1-.65,1.27,2.23,2.23,0,0,1-.85-.09,22.69,22.69,0,0,1-5.95-2.82.29.29,0,0,1,0,.09l-.3-.2a7.94,7.94,0,0,1-4.66-5.31,1.87,1.87,0,0,1-.07-.74.7.7,0,0,1,.43-.57,1,1,0,0,1,.95.32,10.39,10.39,0,0,1,3.63,6.35l0-.26a7.75,7.75,0,0,1,6.89,1.33A2.32,2.32,0,0,1,352.82,307.75Z" transform="translate(-101.73 -163.45)"/><path class="cls-10" d="M357.25,293.44a13.8,13.8,0,0,1,2.58-2.25,5.58,5.58,0,0,1,3.23-1,1.69,1.69,0,0,1,.82.2.76.76,0,0,1,.38.71c-.05.4-.47.62-.83.77a25.88,25.88,0,0,1-6.11,1.68Z" transform="translate(-101.73 -163.45)"/><path class="cls-10" d="M338,328.51a1.32,1.32,0,0,1-1.16.47,3.48,3.48,0,0,1-1.24-.37,31,31,0,0,1-7.38-5.43l-.06.06a16.55,16.55,0,0,1-3.78-5.35,8.58,8.58,0,0,1-1.27-3.79,2,2,0,0,1,.18-.94,1,1,0,0,1,.74-.59,1.53,1.53,0,0,1,1.15.52,9.72,9.72,0,0,1,2.73,4.63,14.79,14.79,0,0,1,.39,5.18l.33-.18a15.42,15.42,0,0,1,4.9.83,9.25,9.25,0,0,1,4.05,2.79,3,3,0,0,1,.59,1A1.3,1.3,0,0,1,338,328.51Z" transform="translate(-101.73 -163.45)"/><path class="cls-10" d="M343.47,297.05a.78.78,0,0,1,.35-.64,1.13,1.13,0,0,1,1.08.17,7.32,7.32,0,0,1,3.54,5.42l-.26-.1a19.74,19.74,0,0,1-2.61-1.69,6.48,6.48,0,0,1-1.93-2.42A1.71,1.71,0,0,1,343.47,297.05Z" transform="translate(-101.73 -163.45)"/><path class="cls-10" d="M352.06,289.09c.28-.19.65.06.88.31a6.76,6.76,0,0,1,1.54,6.18,14.46,14.46,0,0,1-2.59-5.66C351.83,289.63,351.8,289.25,352.06,289.09Z" transform="translate(-101.73 -163.45)"/><path class="cls-10" d="M332.54,305.76a1.5,1.5,0,0,1,1.11.18,8.24,8.24,0,0,1,3.64,3.49,11.68,11.68,0,0,1,1.35,4.88,9.83,9.83,0,0,1,9,3,1.32,1.32,0,0,1,.46,1.19.94.94,0,0,1-.89.58,2.51,2.51,0,0,1-1.09-.3,52.24,52.24,0,0,1-7.53-4.42l0,0h0l-.48-.17a42.32,42.32,0,0,1-5.42-5.77,3.16,3.16,0,0,1-.75-1.33A1.14,1.14,0,0,1,332.54,305.76Z" transform="translate(-101.73 -163.45)"/><path class="cls-10" d="M358.15,293.35c.5-.33,0-1.12-.49-.79-13.74,8.9-19.8,26.24-34.91,33.37-.54.26-.05,1,.49.79C338.37,319.58,344.41,302.25,358.15,293.35Z" transform="translate(-101.73 -163.45)"/><path class="cls-10" d="M257,272a7.76,7.76,0,0,1-.73-2.49,5.61,5.61,0,0,1,.28-2.62,20.12,20.12,0,0,1,1.27,2.16c.36.7.7,1.38,1,2.07s.65,1.38,1,2.1a21.1,21.1,0,0,1,.88,2.35,5.58,5.58,0,0,1-2.2-1.44A7.71,7.71,0,0,1,257,272Z" transform="translate(-101.73 -163.45)"/><path class="cls-10" d="M260.34,297.57a26,26,0,0,1,2.4-2.57,11.75,11.75,0,0,1-1,3.43,16.88,16.88,0,0,1-1.83,3,16.05,16.05,0,0,1-2.42,2.59,11.51,11.51,0,0,1-3,1.94,26.69,26.69,0,0,1,1.82-3c.64-.94,1.3-1.86,2-2.75S259.61,298.44,260.34,297.57Z" transform="translate(-101.73 -163.45)"/><path class="cls-10" d="M263.54,279.21c.63-.67,1.28-1.31,1.95-2a21.5,21.5,0,0,1,2.23-1.9,7.83,7.83,0,0,1-.94,2.87,11.31,11.31,0,0,1-4.08,4.27,8,8,0,0,1-2.82,1.08,21.13,21.13,0,0,1,1.79-2.32C262.29,280.55,262.91,279.87,263.54,279.21Z" transform="translate(-101.73 -163.45)"/><path class="cls-10" d="M264.13,270.74c.52-.69,1.05-1.36,1.62-2a16.26,16.26,0,0,1,1.94-2,7.18,7.18,0,0,1-.55,2.78,10.17,10.17,0,0,1-1.36,2.43,10.55,10.55,0,0,1-2,2,7.19,7.19,0,0,1-2.52,1.3,18.14,18.14,0,0,1,1.35-2.4C263.13,272.12,263.62,271.42,264.13,270.74Z" transform="translate(-101.73 -163.45)"/><path class="cls-10" d="M243.67,330.81a30.67,30.67,0,0,1,.76,3.2,9.49,9.49,0,0,1-2.23-2.55,13.43,13.43,0,0,1-1.38-3.07,12.82,12.82,0,0,1-.56-3.31,9.42,9.42,0,0,1,.43-3.36,30.89,30.89,0,0,1,1.16,3.08c.33,1,.64,2,.94,3S243.39,329.79,243.67,330.81Z" transform="translate(-101.73 -163.45)"/><path class="cls-10" d="M252,286.53a9.41,9.41,0,0,1,0-3.39,28.71,28.71,0,0,1,1.58,2.89c.47,1,.92,1.89,1.36,2.83s.87,1.89,1.3,2.86a32,32,0,0,1,1.2,3.06,9.4,9.4,0,0,1-2.56-2.21,13.12,13.12,0,0,1-1.8-2.84A12.86,12.86,0,0,1,252,286.53Z" transform="translate(-101.73 -163.45)"/><path class="cls-10" d="M262.6,265.31a13.77,13.77,0,0,1,.91-2.47c.36-.76.75-1.49,1.16-2.2s.86-1.39,1.35-2.08a13.66,13.66,0,0,1,1.72-2,7.15,7.15,0,0,1-.26,2.7,10.17,10.17,0,0,1-1,2.42,10.55,10.55,0,0,1-1.62,2.09A7.17,7.17,0,0,1,262.6,265.31Z" transform="translate(-101.73 -163.45)"/><path class="cls-10" d="M254.39,306.28a9.94,9.94,0,0,1-2.67-2.58,13.44,13.44,0,0,1-2.48-6.91,9.65,9.65,0,0,1,.43-3.69c.17.44.32.87.47,1.3a.14.14,0,0,0,0,.06L253.93,305s0,.06,0,.08C254.11,305.45,254.25,305.85,254.39,306.28Z" transform="translate(-101.73 -163.45)"/><path class="cls-10" d="M257.33,294.45a22.9,22.9,0,0,1,1.63-2.62c.58-.81,1.17-1.58,1.78-2.34s1.23-1.51,1.89-2.25a20.69,20.69,0,0,1,2.21-2.17,9,9,0,0,1-.86,3.05,12.46,12.46,0,0,1-1.64,2.65,12.78,12.78,0,0,1-2.23,2.18A9,9,0,0,1,257.33,294.45Z" transform="translate(-101.73 -163.45)"/><path class="cls-10" d="M250.21,309.69c.22.73.44,1.46.65,2.22a21.29,21.29,0,0,1,.54,2.45,5.63,5.63,0,0,1-2-1.73,7.8,7.8,0,0,1-1.17-2.32,8,8,0,0,1-.37-2.57,5.84,5.84,0,0,1,.64-2.56,19.44,19.44,0,0,1,1,2.32C249.74,308.25,250,309,250.21,309.69Z" transform="translate(-101.73 -163.45)"/><path class="cls-10" d="M257.63,260.59a4.81,4.81,0,0,1-.08-2.3,11.86,11.86,0,0,1,1.53,1.59c.42.54.81,1.07,1.18,1.62s.7,1.12,1,1.73a10.77,10.77,0,0,1,.87,2,4.89,4.89,0,0,1-2.08-1,6.94,6.94,0,0,1-2.44-3.68Z" transform="translate(-101.73 -163.45)"/><path class="cls-10" d="M257.43,316.24a7.93,7.93,0,0,1-1.35,2.71,11,11,0,0,1-2.07,2.13,11.68,11.68,0,0,1-2.57,1.52,8,8,0,0,1-2.94.67l.15-.17a8.16,8.16,0,0,1-2.24-2.18,11.46,11.46,0,0,1-1.45-2.8,11.32,11.32,0,0,1-.63-3.1,8.13,8.13,0,0,1,.41-3.16c.48,1,.83,1.92,1.18,2.84s.66,1.83,1,2.74l1,2.74c.3.92.61,1.84.85,2.88a23.39,23.39,0,0,1,1.91-1.84c.71-.6,1.42-1.19,2.14-1.75s1.45-1.12,2.21-1.67A20.26,20.26,0,0,1,257.43,316.24Z" transform="translate(-101.73 -163.45)"/><path class="cls-10" d="M255.35,275.37c.46.86.91,1.71,1.35,2.57l1.33,2.58c.43.88.88,1.78,1.27,2.8a8.43,8.43,0,0,1-2.58-1.86,11.61,11.61,0,0,1-1.84-2.57,10.91,10.91,0,0,1-1-3,7.91,7.91,0,0,1-.05-3.18C254.4,273.63,254.87,274.51,255.35,275.37Z" transform="translate(-101.73 -163.45)"/><path class="cls-10" d="M253.19,325.45a9.11,9.11,0,0,1-1.27,2.9,12.8,12.8,0,0,1-2,2.39,13,13,0,0,1-2.51,1.85,9.13,9.13,0,0,1-3,1.09,21.51,21.51,0,0,1,2-2.36c.69-.72,1.38-1.41,2.09-2.08s1.43-1.31,2.2-1.95A20.2,20.2,0,0,1,253.19,325.45Z" transform="translate(-101.73 -163.45)"/><path class="cls-10" d="M254.49,313.54a7.42,7.42,0,0,1-2.69.93,16.9,16.9,0,0,1,1.68-2.18c.58-.66,1.17-1.28,1.78-1.89s1.23-1.19,1.89-1.77a18.75,18.75,0,0,1,2.19-1.67,7.25,7.25,0,0,1-.94,2.69,10.33,10.33,0,0,1-3.91,3.89Z" transform="translate(-101.73 -163.45)"/><path class="cls-10" d="M261.83,251.23a23.12,23.12,0,0,1,.48-3.72,14.89,14.89,0,0,1,1.13,3.62,22.54,22.54,0,0,1,.1,7.45,14.51,14.51,0,0,1-1,3.65,24.63,24.63,0,0,1-.59-3.71c-.1-1.22-.16-2.43-.18-3.64S261.75,252.45,261.83,251.23Z" transform="translate(-101.73 -163.45)"/><path class="cls-10" d="M263.28,262.07c.08-.87-1.27-1.13-1.34-.25a209.63,209.63,0,0,1-22.46,78.58.68.68,0,0,0,1.23.6A210.33,210.33,0,0,0,263.28,262.07Z" transform="translate(-101.73 -163.45)"/><path class="cls-10" d="M133.5,296.66c-.34.06-.76,0-.92-.28s.1-.74.39-1a6.39,6.39,0,0,1,5.91-1.37l.08.09A8.92,8.92,0,0,1,141.9,289c.35-.29.81-.57,1.21-.39a.84.84,0,0,1,.44.78,2,2,0,0,1-.28.9,9,9,0,0,1-4.26,4.07l-.06-.17h0C137,294.73,135.49,296.38,133.5,296.66Z" transform="translate(-101.73 -163.45)"/><path class="cls-10" d="M136.16,302.08a1.08,1.08,0,0,1-.71,0,.78.78,0,0,1-.36-.86,1.84,1.84,0,0,1,.52-.85,6.15,6.15,0,0,1,5.91-1.67l.18.13a9.75,9.75,0,0,1,2.15-6.17c.3-.36.74-.74,1.18-.58a.79.79,0,0,1,.47.65,2.13,2.13,0,0,1-.1.83,10.32,10.32,0,0,1-3.69,5.36v0l-3.85,2.35A6.9,6.9,0,0,1,136.16,302.08Z" transform="translate(-101.73 -163.45)"/><path class="cls-10" d="M147.68,307.6a14.53,14.53,0,0,1-4.64,4.49c-.34.21-.81.41-1.14.17s-.3-.81-.12-1.22a5.26,5.26,0,0,1,2.54-2.47,15.84,15.84,0,0,1,3.45-1.13Z" transform="translate(-101.73 -163.45)"/><path class="cls-10" d="M129.11,286.73c-.2-.43.15-.9.52-1.19a4.5,4.5,0,0,1,2.93-.8,7.72,7.72,0,0,1,2.94.86h0a8,8,0,0,1,1.84-3.41,1.91,1.91,0,0,1,.92-.53.88.88,0,0,1,.92.38,1.17,1.17,0,0,1-.14,1.12,7.78,7.78,0,0,1-3.22,2.65h-.28a17.61,17.61,0,0,1-5.15,1.33C129.91,287.2,129.31,287.17,129.11,286.73Z" transform="translate(-101.73 -163.45)"/><path class="cls-10" d="M128.28,282.5a.9.9,0,0,1,.06-.84,1.73,1.73,0,0,1,.62-.61,4.38,4.38,0,0,1,2.56-.59,10.63,10.63,0,0,1,2.59.57l-.21.12a26.13,26.13,0,0,1-3.84,1.68,2.49,2.49,0,0,1-1,.15A1,1,0,0,1,128.28,282.5Z" transform="translate(-101.73 -163.45)"/><path class="cls-10" d="M139.83,306.7a2.72,2.72,0,0,1-1.23.57.9.9,0,0,1-1-.71,1.18,1.18,0,0,1,.43-.86,7.51,7.51,0,0,1,6.4-2.18Z" transform="translate(-101.73 -163.45)"/><path class="cls-10" d="M134,281.11l.15-.05a7.47,7.47,0,0,1,2.87-4.2,1.73,1.73,0,0,1,.77-.37.76.76,0,0,1,.77.25c.28.37.05.89-.21,1.27A7.9,7.9,0,0,1,134,281.11Z" transform="translate(-101.73 -163.45)"/><path class="cls-10" d="M132.9,274.49a9.38,9.38,0,0,1-.06-7.76,2.27,2.27,0,0,1,.46-.72,1,1,0,0,1,.78-.27c.51.11.71.72.77,1.23.27,2.56-.87,5-2,7.38Z" transform="translate(-101.73 -163.45)"/><path class="cls-10" d="M137.38,290.49l-.06,0h0a6.7,6.7,0,0,1,2.61-5.33c.39-.26.94-.48,1.32-.19s.32.95.13,1.43a7.52,7.52,0,0,1-4,4.1h0Z" transform="translate(-101.73 -163.45)"/><path class="cls-10" d="M133.55,277.44h-.19a13,13,0,0,1,1.2-2.69,6,6,0,0,1,2.07-2.08,1.82,1.82,0,0,1,.84-.28.86.86,0,0,1,.78.35c.27.42,0,1-.29,1.39A9.6,9.6,0,0,1,133.55,277.44Z" transform="translate(-101.73 -163.45)"/><path class="cls-10" d="M130.91,291.33a1,1,0,0,1,.42-.76,4.14,4.14,0,0,1,3-.92,9,9,0,0,1,3,.82,26.21,26.21,0,0,1-4.88,1.5,2.09,2.09,0,0,1-.93,0A.8.8,0,0,1,130.91,291.33Z" transform="translate(-101.73 -163.45)"/><path class="cls-10" d="M144.48,303.53h0l0,0v0a10.42,10.42,0,0,1,.61-6.89c.18-.39.45-.81.88-.87s.87.36,1,.81a4,4,0,0,1-.24,2.59,22.58,22.58,0,0,1-2.13,4.43h0l.06,0h-.08l-.09.16Z" transform="translate(-101.73 -163.45)"/><path class="cls-10" d="M147.75,307.41l.07-.12c0,.1.07.2.11.29Z" transform="translate(-101.73 -163.45)"/><path class="cls-10" d="M148.32,299.05a2.09,2.09,0,0,1,.62-.67,1,1,0,0,1,.88-.11,1.16,1.16,0,0,1,.55.71,4.38,4.38,0,0,1-.08,2.38,20.87,20.87,0,0,1-2.47,5.93,11.82,11.82,0,0,1-.73-4A7.83,7.83,0,0,1,148.32,299.05Z" transform="translate(-101.73 -163.45)"/><path class="cls-10" d="M154.51,302.8a.93.93,0,0,1,.47.57,2.14,2.14,0,0,1,.08.76,11.38,11.38,0,0,1-1,4.2,29,29,0,0,1-2,3.72h.18a15.87,15.87,0,0,1-4.68,3.66,2.1,2.1,0,0,1-.93.31.8.8,0,0,1-.79-.47,1.12,1.12,0,0,1,.26-1,6.29,6.29,0,0,1,5.84-2.55v0a9.46,9.46,0,0,1,.11-7.13,4.15,4.15,0,0,1,1.4-1.89A1.15,1.15,0,0,1,154.51,302.8Z" transform="translate(-101.73 -163.45)"/><path class="cls-10" d="M154.72,313.53a56.73,56.73,0,0,1-20.65-39.47c-.08-.95-1.55-.67-1.47.27a58.16,58.16,0,0,0,21.29,40.43C154.63,315.37,155.45,314.13,154.72,313.53Z" transform="translate(-101.73 -163.45)"/><path class="cls-11" d="M212.29,333.72l-.46-.17c0,.14.06.29.1.43Z" transform="translate(-101.73 -163.45)"/><path class="cls-11" d="M211.83,333.55c-.61-3.06.34-6.48,1.57-9.71s2.9-6.76,3.42-10.19a2.19,2.19,0,0,0-.43-2.1c-.71-.58-2-.26-2.9.44a7.2,7.2,0,0,0-1.79,2.58,24,24,0,0,0-2-13l-3.5,4.22a21.48,21.48,0,0,0-3.35-10.24c-.59-.91-1.53-1.86-2.81-1.54s-2,1.95-2.31,3.22a21.48,21.48,0,0,0-12.91-10.36c-1.51-.47-3.52-.69-4.83.51s-1,3-.5,4.4a55.87,55.87,0,0,0,5.76,11.71,8.36,8.36,0,0,0-3.8-.26c-1.32.29-2.68,1.36-2.75,2.54s.9,1.76,1.79,2.32q5.09,3.21,10.54,6c-1.6.2-3.68.77-4.05,2.21-.31,1.21.91,2,2,2.53,3,1.44,6.12,2.78,9.27,4a2.77,2.77,0,0,0-2.77,1.82,2.65,2.65,0,0,0,.87,2.78,8.86,8.86,0,0,0,2.82,1.45Z" transform="translate(-101.73 -163.45)"/><path class="cls-10" d="M210.69,329.91c-1-2.13-2.11-4.22-3.22-6.3a.48.48,0,0,0,.09-.23q.67-7.15,1.34-14.29c.06-.64-.92-.84-1-.2q-.63,6.64-1.25,13.29c-1.77-3.24-3.67-6.4-5.66-9.5,0,0,0-.05,0-.08q.56-5.66,1.1-11.32c.06-.64-.92-.84-1-.2-.33,3.44-.67,6.87-1,10.3q-2.61-4-5.44-7.78a.33.33,0,0,0,0-.17c-.26-2.56-.52-5.13-.77-7.69a.5.5,0,0,0-1,.08l.63,6.28a159,159,0,0,0-10.69-12.66c-.44-.47-1.09.29-.65.76a157.49,157.49,0,0,1,10.88,12.92l-5.65-1.36c-.62-.16-.81.83-.19,1l6.61,1.59H194q2.67,3.6,5.15,7.36l-6.71,1c-.63.09-.56,1.09.08,1l7.23-1q3.26,5,6.13,10.25l-6,.52a.5.5,0,0,0,.08,1l6.47-.57c1.14,2.12,2.25,4.26,3.29,6.42C210,330.82,211,330.49,210.69,329.91Z" transform="translate(-101.73 -163.45)"/><path class="cls-5" d="M302,345.89a4.69,4.69,0,0,1-2.1-1.31,4,4,0,0,1-.72-1.8,10.16,10.16,0,0,1,.64-5.86l0-.07.74.46-.17.25a11.83,11.83,0,0,1,3,3.52,6.8,6.8,0,0,1,.74,4.52l0,.84H304A7.12,7.12,0,0,1,302,345.89Z" transform="translate(-101.73 -163.45)"/><path class="cls-5" d="M343.25,344.61a3.27,3.27,0,0,1-.56,2.91,6.08,6.08,0,0,1-4.09,2.29,4.34,4.34,0,0,0,.46-.28,4.69,4.69,0,0,0,1.76-1.86,3.62,3.62,0,0,0-.66-3.66,6.62,6.62,0,0,0-3.33-2V342l.93.06a8,8,0,0,1,4.42,1.2A3,3,0,0,1,343.25,344.61Z" transform="translate(-101.73 -163.45)"/><path class="cls-12" d="M332.66,341.72c1.39.08,2.79.15,4.17.24V342a6.62,6.62,0,0,1,3.33,2,3.62,3.62,0,0,1,.66,3.66,4.69,4.69,0,0,1-1.76,1.86,4.34,4.34,0,0,1-.46.28c-.11,0-.23,0-.34.05a16.37,16.37,0,0,1-5.11-.47,37.69,37.69,0,0,1-11.64-4,2.89,2.89,0,0,0,2.52-1.64,3.12,3.12,0,0,0-.66-2.91l.41-.09,0,.12a19.57,19.57,0,0,0,5.4.69l1,0Z" transform="translate(-101.73 -163.45)"/><path class="cls-12" d="M300.64,337.31c.56.36,1.2.59,1.73,1h0l.32.15c3.31,1.53,6.67,3,10.08,4.29h0c-2.95.1-5.64,3.83-8.55,3.73l0-.84a6.8,6.8,0,0,0-.74-4.52,11.83,11.83,0,0,0-3-3.52Z" transform="translate(-101.73 -163.45)"/><path class="cls-13" d="M329.21,341.58a19.57,19.57,0,0,1-5.4-.69l0-.12q2.78-.64,5.53-1.38c.29.61.59,1.21.91,1.81l0,.42Z" transform="translate(-101.73 -163.45)"/><path class="cls-14" d="M323.35,340.84q-3.9-2.52-7.7-5.19a9.64,9.64,0,0,0,2.15-.75l3.9-1.73,4.37-1.93.07.17a58.07,58.07,0,0,0,3.1,7.84.61.61,0,0,0,.07.14q-2.76.74-5.53,1.38l-.41.09S323.35,340.85,323.35,340.84Z" transform="translate(-101.73 -163.45)"/><path class="cls-15" d="M321.43,345.42a8.29,8.29,0,0,1-3.17-.66c-1.84-.65-3.68-1.33-5.49-2.05-3.41-1.32-6.77-2.76-10.08-4.29v0a11.52,11.52,0,0,0,3.23-3.33,11.85,11.85,0,0,0,1.8-5l.17,0q3.83,2.88,7.75,5.62t7.7,5.19s0,0,0,0h0a3.12,3.12,0,0,1,.66,2.91,2.89,2.89,0,0,1-2.52,1.64Z" transform="translate(-101.73 -163.45)"/><path class="cls-16" d="M315.33,238a18.87,18.87,0,0,1-2.37,5q-4.47,7.49-8.47,15.22c-.24.44-.46.88-.69,1.32l-.1.06c1.36,2.43,1.15,5.33,1.14,8.18,0,.63,0,1.26,0,1.89a78.52,78.52,0,0,0,1.29,8c.11.67.19,1.34.25,2a13.38,13.38,0,0,1-.66,6l-.59-.06c-2.7-1.6-4.19-4.63-5.2-7.61a41.86,41.86,0,0,1-1.68-20,15.62,15.62,0,0,1,1.27-4.46l-.14-.11c1.32-1.77,2.73-3.47,4.12-5.18q4.28-5.21,8.55-10.41h0c1.07-3.06-.27-6.46-.12-9.71a20,20,0,0,1,.53-3.43c.32-1.38.66-2.76,1-4.13a.59.59,0,0,1,.25-.42c.26-.14.54.14.69.4a5.87,5.87,0,0,1,.42.83s0,0,0,0a1.42,1.42,0,0,1,.48.87,31.21,31.21,0,0,1,.91,10.23,29.65,29.65,0,0,1-.45,3.5h0a18.16,18.16,0,0,1-.47,1.9Z" transform="translate(-101.73 -163.45)"/><path class="cls-17" d="M298.27,258.11a41.86,41.86,0,0,0,1.68,20c1,3,2.5,6,5.2,7.61l.59.06a8,8,0,0,1-3.36,4,5.84,5.84,0,0,1-2.61.79,2.72,2.72,0,0,1-1.36-.26l-.14.25a4.56,4.56,0,0,1-.73-2.14c-.21-2.44-.31-4.88-.41-7.32-.11-3-.23-6-.34-9q-.19-5-.38-10a12.73,12.73,0,0,1,.21-3.7,11.91,11.91,0,0,1,2.15-4c.2-.28.41-.55.63-.82l.14.11A15.62,15.62,0,0,0,298.27,258.11Z" transform="translate(-101.73 -163.45)"/><path class="cls-18" d="M316.26,232.6a31.21,31.21,0,0,0-.91-10.23l.45-.08c1.34.76,1.9,2.38,2.31,3.87,1,3.68,1.92,7.44,3.68,10.84,1.86,3.56,4.61,6.55,7.16,9.66s5,6.48,5.93,10.38a13.88,13.88,0,0,1,.36,2.31A6.54,6.54,0,0,1,335,262c-2.19,9.69-5.13,19.5-8,29h0a38.4,38.4,0,0,0-3.05-4.86l-.12-.18h0a104.28,104.28,0,0,1,5.79-16.42c1.53-3.59,3.15-7.5,2.22-11.29a14.42,14.42,0,0,0-1.65-3.75C325.91,247,319,240.92,316.7,232.63Z" transform="translate(-101.73 -163.45)"/><path class="cls-19" d="M320.22,242.16c-1.46-2-3.42-3.82-4.41-6.06h0a29.65,29.65,0,0,0,.45-3.5l.44,0c2.29,8.29,9.21,14.39,13.54,21.83a14.42,14.42,0,0,1,1.65,3.75c.93,3.79-.69,7.7-2.22,11.29a104.28,104.28,0,0,0-5.79,16.42h0c-1.11-1.58-2.22-3.16-3.31-4.73.81-2.47,3.06-4.22,4.09-6.61a15.43,15.43,0,0,0,.82-2.92,58.65,58.65,0,0,1,3.21-11.21l.07-.17a7.14,7.14,0,0,1-1-1.92C325.59,252.79,323.77,247,320.22,242.16Z" transform="translate(-101.73 -163.45)"/><path class="cls-20" d="M307.69,265.84a1.93,1.93,0,0,1,1.32.5,3.2,3.2,0,0,1,.52.52,5.57,5.57,0,0,1,1.48-1.38,16.32,16.32,0,0,1,10.69-2.73h.37a84.33,84.33,0,0,1-.17,8.56,10.66,10.66,0,0,1-.59,3.23,3.93,3.93,0,0,1-2.19,2.34,3.4,3.4,0,0,1-.7.17,7.2,7.2,0,0,1-2.52-.26,6.59,6.59,0,0,1-3.58-1.67l-.15.25a12.44,12.44,0,0,0,6.11,7.78,4.06,4.06,0,0,1-.58,1.87,3.07,3.07,0,0,1-2.31,1.29,4.88,4.88,0,0,1-2.64-.57,10.06,10.06,0,0,1-4.67-6.18,2.1,2.1,0,0,0,1.12-1.63,8.3,8.3,0,0,0-.38-2.69,6.74,6.74,0,0,1,.05-3.34,6.47,6.47,0,0,1-2.17-2.15,3.7,3.7,0,0,1-.62-1.91,2.72,2.72,0,0,1,0-.39A1.85,1.85,0,0,1,307.69,265.84Z" transform="translate(-101.73 -163.45)"/><path class="cls-21" d="M312.32,275.11a6.59,6.59,0,0,0,3.58,1.67,7.2,7.2,0,0,0,2.52.26l.07.65c0,.27,0,.55,0,.83,0,1.37-.06,2.74-.17,4.1,0,.18,0,.35-.05.52a12.44,12.44,0,0,1-6.11-7.78Z" transform="translate(-101.73 -163.45)"/><path class="cls-12" d="M306.7,269.74a6.47,6.47,0,0,0,2.17,2.15,6.74,6.74,0,0,0-.05,3.34,8.3,8.3,0,0,1,.38,2.69,2.1,2.1,0,0,1-1.12,1.63,1.26,1.26,0,0,1-.64.11l-1,.08c-.06-.68-.14-1.35-.25-2a78.52,78.52,0,0,1-1.29-8c0-.63,0-1.26,0-1.89h1.24A3.7,3.7,0,0,0,306.7,269.74Z" transform="translate(-101.73 -163.45)"/><path class="cls-12" d="M306.12,267.44a2.72,2.72,0,0,0,0,.39h-1.24c0-2.85.22-5.75-1.14-8.18l.1-.06c.23-.44.45-.88.69-1.32a9.72,9.72,0,0,1,4.64-2.7,12,12,0,0,1,2.31-.47A9.27,9.27,0,0,1,316,256l0,.48a10.09,10.09,0,0,0-7,9.83,1.93,1.93,0,0,0-1.32-.5A1.85,1.85,0,0,0,306.12,267.44Z" transform="translate(-101.73 -163.45)"/><path class="cls-12" d="M298.27,290.54a11.73,11.73,0,0,0-.1,3c.29,3.64,1.36,7.22,1.86,10.82a10.77,10.77,0,0,1-8.74-.18,9.82,9.82,0,0,1-5.43-7.72c-.3-3.17,1.05-6.28,2.82-8.93s3.95-5,5.62-7.73a13.9,13.9,0,0,0,2.38-7.77h.11c.11,3,.23,6,.34,9,.1,2.44.2,4.88.41,7.32a4.56,4.56,0,0,0,.73,2.14l.14-.25Z" transform="translate(-101.73 -163.45)"/><path class="cls-22" d="M329.67,339.05c4.94-1.14,9.95-2.31,14.37-4.81s8-6.29,9.13-11.08a4.82,4.82,0,0,1,1.77,2.94,7.21,7.21,0,0,1-1,4.22,13.93,13.93,0,0,1-2.14,3.12,18.78,18.78,0,0,1-6.94,4.13,121.1,121.1,0,0,1-12.17,4.15l-2.46-.1,0-.42c-.32-.6-.62-1.2-.91-1.81a.61.61,0,0,1-.07-.14Z" transform="translate(-101.73 -163.45)"/><path class="cls-23" d="M307,320.08l2.09.14,6.53.38a24.8,24.8,0,0,0,8.43-.46l.05.16a2.56,2.56,0,0,1,.43,1.24,15.92,15.92,0,0,1,.19,2.08h.07a35.69,35.69,0,0,1,4.7-.77l5.35-.63a97.73,97.73,0,0,1,11.47-.88,13.32,13.32,0,0,1,5.29.82,6.45,6.45,0,0,1,1.59,1c-1.11,4.79-4.84,8.66-9.13,11.08s-9.43,3.67-14.37,4.81l-.43.2a58.07,58.07,0,0,1-3.1-7.84l-.07-.17-4.37,1.93-.06-.12c-5.23-1.58-9.32-5.64-12.82-9.84a9.84,9.84,0,0,1-2-3.14Z" transform="translate(-101.73 -163.45)"/><path class="cls-24" d="M287.57,318.58l-2.07-.71a5.5,5.5,0,0,1,1-.66,8.32,8.32,0,0,1,7.4.28,12.25,12.25,0,0,1,1.65,1,31.91,31.91,0,0,1,4.39,3.74l7.83,7.55,0,.27a11.85,11.85,0,0,1-1.8,5l-.43-.27c-1.29.51-2.69-.26-3.85-1a113.05,113.05,0,0,1-10.72-8,11.82,11.82,0,0,1-3-3.32A4.57,4.57,0,0,1,287.57,318.58Z" transform="translate(-101.73 -163.45)"/><path class="cls-25" d="M298.19,318.51a32,32,0,0,0,8.66,1.56,9.84,9.84,0,0,0,2,3.14c3.5,4.2,7.59,8.26,12.82,9.84l.06.12-3.9,1.73a9.64,9.64,0,0,1-2.15.75q-3.93-2.73-7.75-5.62l-.17,0,0-.27-7.83-7.55a31.91,31.91,0,0,0-4.39-3.74l1.89-.3a.45.45,0,0,0,.14.27Z" transform="translate(-101.73 -163.45)"/><path class="cls-26" d="M299,340.6l-8-6.72a32.5,32.5,0,0,1-5.83-5.83c.54.44,1.12.84,1.7,1.23,4.17,2.76,8.72,4.93,13,7.57l0,.07A9.94,9.94,0,0,0,299,340.6Z" transform="translate(-101.73 -163.45)"/><path class="cls-27" d="M285.23,328.05a9.56,9.56,0,0,1-1.2-1.18,5.5,5.5,0,0,1-1.45-3.41,5.93,5.93,0,0,1,.72-2.81,8.08,8.08,0,0,1,2.2-2.78l2.07.71a4.57,4.57,0,0,0,.33,3.86,11.82,11.82,0,0,0,3,3.32,113.05,113.05,0,0,0,10.72,8c1.16.76,2.56,1.53,3.85,1l.43.27a11.52,11.52,0,0,1-3.23,3.33v0l-.32-.15h0c-.53-.37-1.17-.6-1.73-1l-.74-.46c-4.25-2.64-8.8-4.81-13-7.57C286.35,328.89,285.77,328.49,285.23,328.05Z" transform="translate(-101.73 -163.45)"/><path class="cls-28" d="M299.77,290.55a5.84,5.84,0,0,0,2.61-.79l0,0c0,2.07,1.45,3.87,3.16,5a13.16,13.16,0,0,0,6.1,2.29c2.27.25,4.66-.08,6.76.81a6.3,6.3,0,0,1,3.41,3.57,1.43,1.43,0,0,1,.1.86,1.39,1.39,0,0,1-1,.77c-2.88.91-5.91-.57-8.91-.83a6.24,6.24,0,0,0-3,.39,5.65,5.65,0,0,0-2.8,3.12,14.3,14.3,0,0,0-.82,4.21c-.29,3.44-.23,7.15,1.56,10.05h-.13a32,32,0,0,1-8.66-1.56l-.62-.09a.45.45,0,0,1-.14-.27,1.26,1.26,0,0,1,.21-.79,20.63,20.63,0,0,0,2.56-8,22.79,22.79,0,0,0-.17-5c-.5-3.6-1.57-7.18-1.86-10.82a11.73,11.73,0,0,1,.1-3l.14-.25A2.72,2.72,0,0,0,299.77,290.55Z" transform="translate(-101.73 -163.45)"/><path class="cls-29" d="M320.56,281.2c1.09,1.57,2.2,3.15,3.31,4.73l.12.18A38.4,38.4,0,0,1,327,291c.12.27.25.54.37.8a10.88,10.88,0,0,1,.88,6.47c-.53,2.62-2.31,4.82-3,7.4a18.86,18.86,0,0,0-.4,5.62c.07,2.82.15,5.63.22,8.45l-.43.24a6.36,6.36,0,0,1-.62.19,24.8,24.8,0,0,1-8.43.46l-6.53-.38-2.09-.14c-1.79-2.9-1.85-6.61-1.56-10.05a14.3,14.3,0,0,1,.82-4.21,5.65,5.65,0,0,1,2.8-3.12,6.24,6.24,0,0,1,3-.39c3,.26,6,1.74,8.91.83a1.39,1.39,0,0,0,1-.77,1.43,1.43,0,0,0-.1-.86,6.3,6.3,0,0,0-3.41-3.57c-2.1-.89-4.49-.56-6.76-.81a13.16,13.16,0,0,1-6.1-2.29c-1.71-1.18-3.21-3-3.16-5l0,0a8,8,0,0,0,3.36-4,13.38,13.38,0,0,0,.66-6l1-.08a1.26,1.26,0,0,0,.64-.11,10.06,10.06,0,0,0,4.67,6.18,4.88,4.88,0,0,0,2.64.57A3.07,3.07,0,0,0,317.7,285a4.06,4.06,0,0,0,.58-1.87c0-.17,0-.34.05-.52.11-1.36.17-2.73.17-4.1h0C319.12,279.42,319.93,280.31,320.56,281.2Z" transform="translate(-101.73 -163.45)"/><path class="cls-30" d="M322.07,262.66a.11.11,0,0,1,0,.08h-.37A16.32,16.32,0,0,0,311,265.48a5.57,5.57,0,0,0-1.48,1.38,3.2,3.2,0,0,0-.52-.52,10.14,10.14,0,0,1,1.82-6A11.11,11.11,0,0,1,316,256h0a12,12,0,0,1,2.14,1.31,9.52,9.52,0,0,1,3.81,5.32Z" transform="translate(-101.73 -163.45)"/><path class="cls-5" d="M141.24,344.37a6.61,6.61,0,0,0-3.32,2,3.61,3.61,0,0,0-.66,3.67,4.71,4.71,0,0,0,1.75,1.85,4.34,4.34,0,0,0,.46.28,6.08,6.08,0,0,1-4.09-2.28,3.32,3.32,0,0,1-.56-2.92,3.19,3.19,0,0,1,1.07-1.39,8.11,8.11,0,0,1,4.42-1.19l.93-.06Z" transform="translate(-101.73 -163.45)"/><path class="cls-5" d="M179,342.94a9.27,9.27,0,0,1-.17,2.17,4,4,0,0,1-.72,1.82,4.82,4.82,0,0,1-2.1,1.3,7.12,7.12,0,0,1-2,.54h-.22l0-.83a6.69,6.69,0,0,1,.75-4.52,11.41,11.41,0,0,1,3-3.52l-.17-.26.74-.46,0,.08A10.3,10.3,0,0,1,179,342.94Z" transform="translate(-101.73 -163.45)"/><path class="cls-12" d="M165.31,345.06q5.1-2,10.07-4.3l.33-.15.1.14c.54-.38,1.08-.74,1.63-1.1l.17.26a11.41,11.41,0,0,0-3,3.52,6.69,6.69,0,0,0-.75,4.52l0,.83c-2.92.11-5.3-2.85-8.25-2.95Z" transform="translate(-101.73 -163.45)"/><path class="cls-12" d="M147.79,344c.36,0,.72,0,1.08-.05a18.73,18.73,0,0,0,5.39-.7l0-.1.42.09a3.08,3.08,0,0,0-.66,2.91,2.85,2.85,0,0,0,2.51,1.63,37.27,37.27,0,0,1-11.64,4,16.64,16.64,0,0,1-5.11.46l-.34-.05a4.34,4.34,0,0,1-.46-.28,4.71,4.71,0,0,1-1.75-1.85,3.61,3.61,0,0,1,.66-3.67,6.61,6.61,0,0,1,3.32-2v-.06c1.39-.1,2.78-.17,4.17-.24C146.21,344,147,344,147.79,344Z" transform="translate(-101.73 -163.45)"/><path class="cls-31" d="M154.71,343.21v0q3.9-2.52,7.72-5.2t7.73-5.62l.17,0a11.52,11.52,0,0,0,1.81,5,11.3,11.3,0,0,0,3.23,3.34v0q-5,2.31-10.07,4.3c-1.82.72-3.65,1.39-5.49,2.05a8.13,8.13,0,0,1-3.16.65h-.1a2.85,2.85,0,0,1-2.51-1.63,3.08,3.08,0,0,1,.66-2.91Z" transform="translate(-101.73 -163.45)"/><path class="cls-32" d="M148.83,341.75a79.4,79.4,0,0,0,3.1-8l.07-.17,4.38,1.93,3.91,1.72a9,9,0,0,0,2.15.75q-3.83,2.67-7.72,5.2v0l-.42-.09C152.46,342.69,150.63,342.24,148.83,341.75Z" transform="translate(-101.73 -163.45)"/><path class="cls-33" d="M148.87,343.92c-.36,0-.72,0-1.08.05.33-.7.68-1.44,1-2.22,1.8.49,3.63.94,5.46,1.37l0,.1A18.73,18.73,0,0,1,148.87,343.92Z" transform="translate(-101.73 -163.45)"/><path class="cls-34" d="M147.84,256.81c4.32-7.45,11.25-13.54,13.53-21.83l.44,0a29.48,29.48,0,0,0,.45,3.49h0c-1,2.25-2.94,4.09-4.4,6.06-3.55,4.81-5.38,10.63-7.54,16.2a7,7,0,0,1-1,1.93l.06.17A60.35,60.35,0,0,1,152.61,274a14.65,14.65,0,0,0,.83,2.93c1,2.38,3.27,4.15,4.08,6.62l-3.31,4.71h0a104,104,0,0,0-5.8-16.42c-1.53-3.6-3.15-7.5-2.21-11.3A14,14,0,0,1,147.84,256.81Z" transform="translate(-101.73 -163.45)"/><path class="cls-35" d="M142.84,261.76a12.79,12.79,0,0,1,.36-2.38c1-3.9,3.38-7.27,5.93-10.37s5.29-6.11,7.15-9.66c1.76-3.4,2.65-7.16,3.68-10.85.42-1.48,1-3.1,2.32-3.87l.45.09a31.21,31.21,0,0,0-.92,10.23h0c-2.29,8.29-9.65,14.41-14,21.86a14,14,0,0,0-1.65,3.74c-.94,3.8.68,7.7,2.21,11.3a104,104,0,0,1,5.8,16.42h0l-.12.19a35.56,35.56,0,0,0-3.06,4.87h0c-2.87-9.51-5.81-19.33-8-29A6.43,6.43,0,0,1,142.84,261.76Z" transform="translate(-101.73 -163.45)"/><path class="cls-36" d="M178.13,280.42a41.86,41.86,0,0,0,1.68-20,15.92,15.92,0,0,0-1.27-4.47l.14-.11c.21.27.42.55.62.83a11.94,11.94,0,0,1,2.17,4,13,13,0,0,1,.21,3.69c0,.67-.05,1.33-.08,2-.22,5.68-.43,11.36-.66,17-.09,2.44-.18,4.88-.41,7.3a4.28,4.28,0,0,1-.73,2.15s-.63,0-1.11,0a1.61,1.61,0,0,1-.38,0,5.71,5.71,0,0,1-2.61-.78,8,8,0,0,1-3.37-4l.6-.06C175.63,286.43,177.12,283.4,178.13,280.42Z" transform="translate(-101.73 -163.45)"/><path class="cls-37" d="M163.63,223c.15-.26.44-.53.7-.4a.61.61,0,0,1,.25.43c.37,1.37.7,2.74,1,4.13a20.06,20.06,0,0,1,.54,3.43c.15,3.25-1.2,6.64-.11,9.71h0q4.24,5.2,8.53,10.41c1.4,1.7,2.8,3.4,4.13,5.17l-.14.11a15.92,15.92,0,0,1,1.27,4.47,41.86,41.86,0,0,1-1.68,20c-1,3-2.5,6-5.2,7.6l-.6.06a13.5,13.5,0,0,1-.66-6c.06-.67.15-1.35.26-2a72.58,72.58,0,0,0,1.29-8c0-.62,0-1.25,0-1.89,0-2.84-.23-5.75,1.13-8.18l-.1-.06c-.58-1.13-1.18-2.27-1.78-3.41q-3.52-6.64-7.38-13.12a18.49,18.49,0,0,1-2.37-5h0c-.17-.63-.36-1.26-.49-1.9a29.48,29.48,0,0,1-.45-3.49,31.21,31.21,0,0,1,.92-10.23,1.39,1.39,0,0,1,.48-.87s0,0,0,0A6.58,6.58,0,0,1,163.63,223Z" transform="translate(-101.73 -163.45)"/><path class="cls-38" d="M165.92,277.71a12.46,12.46,0,0,1-6.12,7.78c0-.18,0-.34-.05-.52-.11-1.36-.17-2.73-.17-4.1,0-.27,0-.56,0-.83l.09-.66a7.35,7.35,0,0,0,2.5-.25,6.7,6.7,0,0,0,3.52-1.61Z" transform="translate(-101.73 -163.45)"/><path class="cls-39" d="M156.08,264.23a3.5,3.5,0,0,1,3.55.93,17.8,17.8,0,0,1,2.3,3.1,6.21,6.21,0,0,0,1.71,1.79,3.9,3.9,0,0,0,4.85-.74l0,0a2.44,2.44,0,0,1,1.92-1.1,1.85,1.85,0,0,1,1.57,1.6,2.45,2.45,0,0,1,0,.38,3.83,3.83,0,0,1-.62,1.92,6.41,6.41,0,0,1-2.18,2.15,6.41,6.41,0,0,1,.05,3.34,8.25,8.25,0,0,0-.37,2.69A2.12,2.12,0,0,0,170,281.9a10,10,0,0,1-4.68,6.17,5,5,0,0,1-2.64.58,3.09,3.09,0,0,1-2.31-1.3,4,4,0,0,1-.57-1.86,12.53,12.53,0,0,0,5.9-8h0a6.7,6.7,0,0,1-3.52,1.61,7.35,7.35,0,0,1-2.5.25,3.11,3.11,0,0,1-.72-.16,4,4,0,0,1-2.2-2.34,10.72,10.72,0,0,1-.58-3.24c-.13-1.87-.2-3.74-.21-5.63,0-1.23,0-2.47.05-3.7Z" transform="translate(-101.73 -163.45)"/><path class="cls-40" d="M179.89,320.86a32.43,32.43,0,0,1-8.65,1.56h-.15c1.79-2.9,1.86-6.62,1.58-10.06a14.91,14.91,0,0,0-.83-4.2,5.62,5.62,0,0,0-2.8-3.12,6.15,6.15,0,0,0-3-.39c-3,.25-6,1.73-8.9.83a1.38,1.38,0,0,1-1-.78,1.33,1.33,0,0,1,.1-.85,6.25,6.25,0,0,1,3.4-3.57c2.11-.89,4.5-.56,6.77-.81a13.27,13.27,0,0,0,6.1-2.29c1.7-1.19,3.2-3,3.17-5.06v0a5.71,5.71,0,0,0,2.61.78,1.61,1.61,0,0,0,.38,0h1.11a10.54,10.54,0,0,1,.1,3,4.4,4.4,0,0,1-.05.51c-.49,5.14-2.44,10.18-2,15.34a20.71,20.71,0,0,0,2.58,8c.17.33.35.8.05,1.05Z" transform="translate(-101.73 -163.45)"/><path class="cls-41" d="M159.8,285.49a4,4,0,0,0,.57,1.86,3.09,3.09,0,0,0,2.31,1.3,5,5,0,0,0,2.64-.58A10,10,0,0,0,170,281.9a1.4,1.4,0,0,0,.64.11l1,.07a13.5,13.5,0,0,0,.66,6,8,8,0,0,0,3.37,4v0c0,2.08-1.47,3.87-3.17,5.06a13.27,13.27,0,0,1-6.1,2.29c-2.27.25-4.66-.08-6.77.81a6.25,6.25,0,0,0-3.4,3.57,1.33,1.33,0,0,0-.1.85,1.38,1.38,0,0,0,1,.78c2.87.9,5.91-.58,8.9-.83a6.15,6.15,0,0,1,3,.39,5.62,5.62,0,0,1,2.8,3.12,14.91,14.91,0,0,1,.83,4.2c.28,3.44.21,7.16-1.58,10.06l-2.08.13-6.53.39a25.33,25.33,0,0,1-8.43-.46c-.2-.05-.41-.12-.62-.19l-.44-.25c.09-2.82.16-5.64.24-8.45a18.88,18.88,0,0,0-.41-5.62c-.71-2.57-2.5-4.78-3-7.39a11,11,0,0,1,.89-6.47c.11-.27.24-.53.36-.79a35.56,35.56,0,0,1,3.06-4.87l.12-.19,3.31-4.71c.62-.9,1.44-1.79,2.06-2.69h0c0,1.37.06,2.74.17,4.1C159.76,285.15,159.78,285.31,159.8,285.49Z" transform="translate(-101.73 -163.45)"/><path class="cls-42" d="M148.78,341.74h.05c-.36.78-.71,1.52-1,2.22-.79,0-1.58.06-2.38.1a120.92,120.92,0,0,1-12.16-4.15,18.8,18.8,0,0,1-6.93-4.13,14.27,14.27,0,0,1-2.15-3.13,7,7,0,0,1-1-4.21,4.81,4.81,0,0,1,1.76-2.95c1.12,4.78,4.85,8.66,9.14,11.09s9.43,3.66,14.37,4.8l.36.34h0Z" transform="translate(-101.73 -163.45)"/><path class="cls-43" d="M148.77,341.74h0l-.36-.34c-4.94-1.14-10-2.31-14.37-4.8s-8-6.31-9.14-11.09a6.72,6.72,0,0,1,1.59-1,13.22,13.22,0,0,1,5.3-.83,100.12,100.12,0,0,1,11.47.89l5.34.63a33.86,33.86,0,0,1,4.7.77h.07a16.08,16.08,0,0,1,.2-2.09,2.59,2.59,0,0,1,.43-1.23l.05-.16a25.33,25.33,0,0,0,8.43.46l6.53-.39,2.08-.13h.15a9.84,9.84,0,0,1-2,3.14c-3.49,4.2-7.58,8.25-12.81,9.83l-.06.13L152,333.59l-.07.17a79.4,79.4,0,0,1-3.1,8h-.06Z" transform="translate(-101.73 -163.45)"/><path class="cls-44" d="M171.38,272.09a3.83,3.83,0,0,0,.62-1.92h1.25c0,.64,0,1.27,0,1.89a72.58,72.58,0,0,1-1.29,8c-.11.67-.2,1.35-.26,2l-1-.07a1.4,1.4,0,0,1-.64-.11,2.12,2.12,0,0,1-1.12-1.63,8.25,8.25,0,0,1,.37-2.69,6.41,6.41,0,0,0-.05-3.34A6.41,6.41,0,0,0,171.38,272.09Z" transform="translate(-101.73 -163.45)"/><path class="cls-45" d="M177.44,339.65c-.55.36-1.09.72-1.63,1.1l-.1-.14-.33.15v0a11.3,11.3,0,0,1-3.23-3.34l.43-.26c1.28.51,2.7-.26,3.85-1a117.49,117.49,0,0,0,10.72-8,12.11,12.11,0,0,0,3-3.32,4.38,4.38,0,0,0,.09-4.32l.56-1.24a5.13,5.13,0,0,1,.76.33,7.68,7.68,0,0,1,3.18,3.44,5.8,5.8,0,0,1,.73,2.81,5.54,5.54,0,0,1-1.44,3.41,8.51,8.51,0,0,1-1.23,1.17,17,17,0,0,1-1.69,1.23c-4.17,2.77-8.71,4.93-13,7.57Z" transform="translate(-101.73 -163.45)"/><path class="cls-46" d="M187,336.22c-2.65,2.24-5.31,4.49-8,6.72a10.3,10.3,0,0,0-.81-3.67l0-.08c4.25-2.64,8.79-4.8,13-7.57a17,17,0,0,0,1.69-1.23A32.44,32.44,0,0,1,187,336.22Z" transform="translate(-101.73 -163.45)"/><path class="cls-47" d="M155.35,268a6.16,6.16,0,0,1,.26-5.48,11.37,11.37,0,0,1,3.91-4.07,12.8,12.8,0,0,1,3.48-1.71,9.68,9.68,0,0,1,9,2l.49-.26c.6,1.14,1.2,2.28,1.78,3.41l.1.06c-1.36,2.43-1.15,5.34-1.13,8.18H172a2.45,2.45,0,0,0,0-.38,1.85,1.85,0,0,0-1.57-1.6,2.44,2.44,0,0,0-1.92,1.1l0,0a3.9,3.9,0,0,1-4.85.74,6.21,6.21,0,0,1-1.71-1.79,17.8,17.8,0,0,0-2.3-3.1,3.5,3.5,0,0,0-3.55-.93l-.06.08c-.05,1.23-.07,2.47-.05,3.7Z" transform="translate(-101.73 -163.45)"/><path class="cls-48" d="M192.73,274.5c.43,1.85-.52,3.73-1.62,5.28s-2.4,3.06-2.81,4.91c-.38,1.69,0,3.44-.08,5.17a7.53,7.53,0,0,1-2.47,5.11,6.38,6.38,0,0,1-5.42,1.48l-.48,0a4.4,4.4,0,0,0,.05-.51,10.54,10.54,0,0,0-.1-3h-1.11c.48,0,1.11,0,1.11,0a4.28,4.28,0,0,0,.73-2.15c.23-2.42.32-4.86.41-7.3.23-5.68.44-11.36.66-17a7.27,7.27,0,0,0,3.67,2.88c1.47.61,3,1,4.41,1.76A5.73,5.73,0,0,1,192.73,274.5Z" transform="translate(-101.73 -163.45)"/><path class="cls-49" d="M190.83,319.23l-.56,1.24a4.38,4.38,0,0,1-.09,4.32,12.11,12.11,0,0,1-3,3.32,117.49,117.49,0,0,1-10.72,8c-1.15.76-2.57,1.53-3.85,1l-.43.26a11.52,11.52,0,0,1-1.81-5l0-.28,7.83-7.53a36.17,36.17,0,0,1,3.6-3.19,15,15,0,0,1,2.43-1.52A8.69,8.69,0,0,1,190.83,319.23Z" transform="translate(-101.73 -163.45)"/><path class="cls-50" d="M170.32,332.07l0,.28-.17,0q-3.81,2.88-7.73,5.62a9,9,0,0,1-2.15-.75l-3.91-1.72.06-.13c5.23-1.58,9.32-5.63,12.81-9.83a9.84,9.84,0,0,0,2-3.14,32.43,32.43,0,0,0,8.65-1.56l1.86.49a36.17,36.17,0,0,0-3.6,3.19Z" transform="translate(-101.73 -163.45)"/><path class="cls-11" d="M254.92,340.56l.46-.17a3.48,3.48,0,0,1-.1.44Z" transform="translate(-101.73 -163.45)"/><path class="cls-11" d="M255.38,340.39c.62-3.06-.33-6.47-1.56-9.7-1.29-3.39-2.91-6.77-3.43-10.19a2.23,2.23,0,0,1,.44-2.11c.71-.58,2-.26,2.9.44a7.24,7.24,0,0,1,1.78,2.59,24,24,0,0,1,2-13l3.5,4.21a21.52,21.52,0,0,1,3.35-10.24c.58-.9,1.53-1.86,2.8-1.54s2,1.95,2.31,3.22a21.58,21.58,0,0,1,12.91-10.36c1.52-.47,3.53-.69,4.84.51s1,3,.5,4.4A56.12,56.12,0,0,1,282,310.3a8.46,8.46,0,0,1,3.79-.26c1.33.3,2.69,1.36,2.76,2.54s-.9,1.76-1.79,2.32q-5.08,3.21-10.54,6c1.6.19,3.67.76,4,2.2.32,1.21-.9,2-2,2.54q-4.53,2.14-9.26,4a2.75,2.75,0,0,1,2.76,1.82,2.6,2.6,0,0,1-.87,2.77,8.71,8.71,0,0,1-2.81,1.45Z" transform="translate(-101.73 -163.45)"/><path class="cls-10" d="M279.71,298.84A140,140,0,0,0,268,315.28a37.63,37.63,0,0,1-.23-6.46c0-.64-1-.56-1,.08a38.47,38.47,0,0,0,.39,7.73h0q-3.35,5.63-6.17,11.55l-1.38-9.83c-.09-.63-1.08-.56-1,.08l1.53,11a.5.5,0,0,0,.14.28c-1.08,2.33-2.12,4.69-3.08,7.08-.23.6.67,1,.9.44,1-2.52,2.11-5,3.25-7.45l.11,0,7.32-3.69c.57-.29.24-1.24-.33-.95L262,328.32c1.91-4,4-7.86,6.25-11.63a.55.55,0,0,0,.22,0,53.34,53.34,0,0,0,9.49-3.62c.57-.28.24-1.23-.34-.94a52.94,52.94,0,0,1-8.61,3.35,141,141,0,0,1,11.45-16C280.88,299,280.12,298.34,279.71,298.84Z" transform="translate(-101.73 -163.45)"/><path class="cls-5" d="M217.42,373.27a10,10,0,0,0,5.73,0v0a20.72,20.72,0,0,1-5.71,1.48,16.77,16.77,0,0,1-8.12-1.73,11.61,11.61,0,0,1-4.64-3.33,5.39,5.39,0,0,1-.82-5.42,5.82,5.82,0,0,1,3.52-2.78c-1.37,2.61-.28,6,1.86,8.08S214.46,372.62,217.42,373.27Z" transform="translate(-101.73 -163.45)"/><path class="cls-12" d="M244.53,364.13l11.34-4.29c2.63-1,5.25-2,7.92-2.85.9-.29,1.79-.56,2.69-.82l0,.12a14.22,14.22,0,0,1-.17,11.67v.12a14.86,14.86,0,0,1-4.14-.79,75.11,75.11,0,0,0-9-2.51,26.49,26.49,0,0,0-8.43-.11Z" transform="translate(-101.73 -163.45)"/><path class="cls-12" d="M230.78,364.78a13.49,13.49,0,0,0,2.94,2.36l-.09.5a34.13,34.13,0,0,1-10.47,5.65v0a10,10,0,0,1-5.73,0c-3-.65-6-1.6-8.17-3.68s-3.23-5.47-1.86-8.08a13.14,13.14,0,0,1,2-.56,60.23,60.23,0,0,1,11.15-.82h.89c2.33,0,4.74-.34,7.08-.36h0l.41-.16.12.31a4.46,4.46,0,0,0,.66,3.65,7.63,7.63,0,0,0,1,1.16Z" transform="translate(-101.73 -163.45)"/><path class="cls-51" d="M234.2,208.28a.71.71,0,0,0-.09.07,21.51,21.51,0,0,0,.29-5.14q-.08-4.53-.18-9.07c0-1.77-.07-3.54-.1-5.31a5.36,5.36,0,0,1,.78-2c2.67,7.54,1.21,16.31,5,23.34.29.52.59,1,.92,1.5l-2,1.41a36.43,36.43,0,0,0-4.63-4.75Z" transform="translate(-101.73 -163.45)"/><path class="cls-52" d="M239.93,210.14c-3.82-7-2.36-15.8-5-23.34a4,4,0,0,1,.29-.43c3.87,6,2.3,14.19,5.49,20.6,1.61,3.24,4.32,5.77,7,8.15,1.82,1.58,3.66,3.12,5.54,4.62a57.67,57.67,0,0,1,7.09,6.24,15.87,15.87,0,0,1,4.21,8.3l-.11,0c.9,5.32-.73,10.78-1.54,16.15-.55,3.7-.7,7.47-1.62,11.09-1.49,5.87-4.93,11.13-6.23,17-.38,1.72-.63,3.58-1.65,5a60.43,60.43,0,0,1-5.13-8.58l.47-.22q4-10.82,7.9-21.6c1.71-4.7,3.46-9.58,3.1-14.57-.5-7.09-5.17-13.2-10.34-18.07-3-2.83-6.28-5.47-8.56-8.86C240.52,211.15,240.22,210.66,239.93,210.14Z" transform="translate(-101.73 -163.45)"/><path class="cls-53" d="M248.75,274.74l-.47.22a59.69,59.69,0,0,1-3.38-8.48l.17-.05c.16-3.2,2.38-5.84,3.9-8.65,3.32-6.12,3.56-13.64,7.42-19.41-2.17-.93-3.63-3-4.9-5-4.26-6.74-7.65-14.25-12.65-20.36l2-1.41c2.28,3.39,5.57,6,8.56,8.86,5.17,4.87,9.84,11,10.34,18.07.36,5-1.39,9.87-3.1,14.57Q252.69,263.92,248.75,274.74Z" transform="translate(-101.73 -163.45)"/><path class="cls-54" d="M240.44,261.08a13.38,13.38,0,0,0-2.66,5.67,6.74,6.74,0,0,0,.45,3.44,39.27,39.27,0,0,1,1.74,3.65,7.81,7.81,0,0,1-.08,3.81,39.35,39.35,0,0,0-1.34,5.73,6.84,6.84,0,0,0,.35,2.69,13.41,13.41,0,0,1-5.32,1.17,9.2,9.2,0,0,1-5.31-1.66,9.43,9.43,0,0,1-2.07-2.16,15,15,0,0,1-2.49-8.13,30.17,30.17,0,0,1,.91-7.68l.27.06a21.59,21.59,0,0,0,9.61-2.05,15.59,15.59,0,0,0,5.68-4.72Z" transform="translate(-101.73 -163.45)"/><path class="cls-55" d="M224.73,267.15a8.91,8.91,0,0,0,3.2-8,9,9,0,0,0,6.38,1.86,9.47,9.47,0,0,0,6.49-3.6,16.57,16.57,0,0,0,2.12-4l.38.15c.3,2.4-1,4.7-2.34,6.72l-.52.78-.26-.18a15.59,15.59,0,0,1-5.68,4.72,21.59,21.59,0,0,1-9.61,2.05l-.27-.06A3.43,3.43,0,0,1,224.73,267.15Z" transform="translate(-101.73 -163.45)"/><path class="cls-56" d="M221.59,246.43a5,5,0,0,1,1.56.78h.08a22.73,22.73,0,0,1,.82-5.69,11.63,11.63,0,0,1,1.6-3.68,11.13,11.13,0,0,1,2.86-2.74,19.33,19.33,0,0,1,6.21-2.88l.06.21c-.17,2.69,1.39,5.23,3.43,7,1.23,1.05,2.64,1.87,3.81,3a5.91,5.91,0,0,1,2,3.79,3.83,3.83,0,0,1,1.11-.63,1.55,1.55,0,0,1,1.28.09l.18.13a1.51,1.51,0,0,1,.42,1.27,3.76,3.76,0,0,1-.46,1.29,16.46,16.46,0,0,1-3.23,4.28l0,0a2.14,2.14,0,0,1-.1.22c-.07.2-.15.41-.23.61a16.57,16.57,0,0,1-2.12,4,9.47,9.47,0,0,1-6.49,3.6,9,9,0,0,1-6.38-1.86,8.14,8.14,0,0,1-.63-.54,14.47,14.47,0,0,1-3.19-5.32l-.1,0c-.88-.74-1.88-1.34-2.74-2.11a4.8,4.8,0,0,1-1.71-2.91,1.86,1.86,0,0,1,.39-1.47,1.49,1.49,0,0,1,1-.44A2,2,0,0,1,221.59,246.43Z" transform="translate(-101.73 -163.45)"/><path class="cls-57" d="M211.84,282l-.27.37h0a36.12,36.12,0,0,0-1.9-12.06c-.54-1.4-1.24-2.74-1.86-4.1a89.39,89.39,0,0,1-3.36-9.1,58.88,58.88,0,0,1-2.15-7.72c-.93-5.18-.42-10.5.09-15.76l-.11,0c.47-2.64,2.24-4.87,4.05-6.87,6.83-7.5,15.18-13.48,22.18-20.82l0,0a30.49,30.49,0,0,0,2-7.39c.21-1.49.3-3,.58-4.48.17-.91.41-1.81.64-2.71.32-1.2.64-2.4,1-3.6a1,1,0,0,1,.26-.54.71.71,0,0,1,1,.24,2,2,0,0,1,.24,1.11,2.81,2.81,0,0,0,0,.29c0,1.77.07,3.54.1,5.31h-.17a22.75,22.75,0,0,1-1.54,9.62,31.73,31.73,0,0,1-5.12,7.55l-19.34,23.33a6.54,6.54,0,0,0-1.7,3,6.11,6.11,0,0,0,.22,2.36,118.05,118.05,0,0,0,12.12,31.79A101.3,101.3,0,0,1,211.84,282Z" transform="translate(-101.73 -163.45)"/><path class="cls-58" d="M234.11,208.35a69,69,0,0,0-13.59,16.06c-3,4.85-5.42,10.18-9.6,14l.22.24c3.83,6.05,3.67,13.84,6.7,20.34.5,1.05,1.07,2.07,1.64,3.08s1.26,2.23,1.89,3.34l.6.3c-1,2.06-2.12,4.09-3.28,6.08A118.05,118.05,0,0,1,206.57,240a6.11,6.11,0,0,1-.22-2.36,6.54,6.54,0,0,1,1.7-3l19.34-23.33a31.73,31.73,0,0,0,5.12-7.55,22.75,22.75,0,0,0,1.54-9.62h.17q.1,4.55.18,9.07A21.51,21.51,0,0,1,234.11,208.35Z" transform="translate(-101.73 -163.45)"/><path class="cls-59" d="M230.89,358.82a146.68,146.68,0,0,1-15.14-5.3c-6.14-2.54-12.28-5.63-16.56-10.71a16.15,16.15,0,0,1-3.51-6.48,9.67,9.67,0,0,1,.92-7.19l-.07-.21a14.19,14.19,0,0,1,4.18-.79,22.73,22.73,0,0,1,3.19.16c1.24.15,2.49.33,3.72.57a.83.83,0,0,1-.07.13l.14.43a53.68,53.68,0,0,0,30.09,5.27c.61-.07,1.22-.15,1.82-.24,2-.3,4-.69,6-1.11,2.55-.54,5.2-1.15,7.25-2.75l.08-.83c5.05.52,10.15-1.06,15.11-2.32a33.44,33.44,0,0,1,11.2-1.29,7.88,7.88,0,0,1,2.31,2.11,13,13,0,0,1-1,16.46,19.47,19.47,0,0,1-3.22,2.56c-13.78,9.22-31.3,10.59-46.46,17.3l-.14.14a7.63,7.63,0,0,1-1-1.16,4.46,4.46,0,0,1-.66-3.65l-.12-.31Z" transform="translate(-101.73 -163.45)"/><path class="cls-60" d="M196.6,329.14a9.67,9.67,0,0,0-.92,7.19,16.15,16.15,0,0,0,3.51,6.48c4.28,5.08,10.42,8.17,16.56,10.71a146.68,146.68,0,0,0,15.14,5.3l-2,.79-.41.16h0c-2.34,0-4.75.33-7.08.36h0c-3.59-1.06-7.17-2.56-10.76-3.61-5.26-1.56-10.6-3.14-15.26-6-2.7-1.69-5.22-3.93-6.38-6.9a11,11,0,0,1,1.79-10.67,12.71,12.71,0,0,1,5.72-4Z" transform="translate(-101.73 -163.45)"/><path class="cls-61" d="M230.87,364.59c15.16-6.71,32.68-8.08,46.46-17.3a19.47,19.47,0,0,0,3.22-2.56,13,13,0,0,0,1-16.46,7.88,7.88,0,0,0-2.31-2.11,14.75,14.75,0,0,1,5,1.32,19,19,0,0,1,4,2.59,11.83,11.83,0,0,1,4.06,5.09c1.26,3.64-.64,7.69-3.29,10.49a30.61,30.61,0,0,1-11.86,7.23c-3.08,1.14-6.26,2-9.42,2.91l-1.28.38c-.9.26-1.79.53-2.69.82-2.67.86-5.29,1.86-7.92,2.85l-11.34,4.29-9.31,3.52a5.32,5.32,0,0,1-1.5-.51,13.49,13.49,0,0,1-2.94-2.36l-.05,0Z" transform="translate(-101.73 -163.45)"/><path class="cls-62" d="M221,246.38a17,17,0,0,1,2.86-11.64,12.05,12.05,0,0,1,10.79-5.05l.54.08-.37,2.44h-.05a19.33,19.33,0,0,0-6.21,2.88,11.13,11.13,0,0,0-2.86,2.74,11.63,11.63,0,0,0-1.6,3.68,22.73,22.73,0,0,0-.82,5.69h-.08a5,5,0,0,0-1.56-.78A2,2,0,0,0,221,246.38Z" transform="translate(-101.73 -163.45)"/><path class="cls-63" d="M218.69,271.81c1.16-2,2.26-4,3.28-6.08a.3.3,0,0,0,0-.1l.82.41,2,.75c0,.12-.06.24-.08.36a3.43,3.43,0,0,0-.11.46,30.17,30.17,0,0,0-.91,7.68,15,15,0,0,0,2.49,8.13,9.43,9.43,0,0,0,2.07,2.16,9.2,9.2,0,0,0,5.31,1.66,13.41,13.41,0,0,0,5.32-1.17,5.28,5.28,0,0,0,.52,1.1c-.06,2.59-2.5,4.59-5,5.26s-5.22.37-7.84.54a21.64,21.64,0,0,0-4,.63,9,9,0,0,0-3.61,1.64,5.82,5.82,0,0,0,3.68,10.33,13.52,13.52,0,0,0,4.61-1.21,21.22,21.22,0,0,1,8.85-1.6,10.91,10.91,0,0,1,7.89,3.85,12.91,12.91,0,0,1,2.29,5.76c.12.71.21,1.42.28,2.14a26,26,0,0,1-7,19.95c-.6.09-1.21.17-1.82.24a53.68,53.68,0,0,1-30.09-5.27l-.14-.43a.83.83,0,0,0,.07-.13q3.56-6.75,6.76-13.66a11.11,11.11,0,0,0,1.36-4.62,12.6,12.6,0,0,0-.88-3.85,62.51,62.51,0,0,1-3-24.7A101.3,101.3,0,0,0,218.69,271.81Z" transform="translate(-101.73 -163.45)"/><path class="cls-64" d="M246.58,274.09c-1.17-2.3-2.76-4.6-2.58-7.18a6.63,6.63,0,0,1,.29-1.46l.33.1c.09.31.18.62.28.93a59.69,59.69,0,0,0,3.38,8.48,60.43,60.43,0,0,0,5.13,8.58s0,0,0,0a13.68,13.68,0,0,1,0,4.14c-.81,7.05-2.79,13.9-4.54,20.79a18.15,18.15,0,0,0-.78,5.52c0,.15,0,.29,0,.44l-1.61.05c-.07-.72-.16-1.43-.28-2.14a12.91,12.91,0,0,0-2.29-5.76,10.91,10.91,0,0,0-7.89-3.85,21.22,21.22,0,0,0-8.85,1.6,13.52,13.52,0,0,1-4.61,1.21A5.82,5.82,0,0,1,219,295.24a9,9,0,0,1,3.61-1.64,21.64,21.64,0,0,1,4-.63c2.62-.17,5.31.13,7.84-.54s5-2.67,5-5.26a3.83,3.83,0,0,0,1.39,1.29,4.25,4.25,0,0,0,3.76,0,6.23,6.23,0,0,0,2.72-2.68,10,10,0,0,0,1.11-5.9A16.46,16.46,0,0,0,246.58,274.09Z" transform="translate(-101.73 -163.45)"/><path class="cls-65" d="M244,246.19a5.91,5.91,0,0,0-2-3.79c-1.17-1.12-2.58-1.94-3.81-3-2-1.75-3.6-4.29-3.43-7l-.06-.21h.05l.37-2.44a12.63,12.63,0,0,1,8.19,5.68,20.7,20.7,0,0,1,3,10.2,1.55,1.55,0,0,0-1.28-.09A3.83,3.83,0,0,0,244,246.19Z" transform="translate(-101.73 -163.45)"/><path class="cls-66" d="M252.71,329.75l.24,0-.08.83c-2.05,1.6-4.7,2.21-7.25,2.75-2,.42-4,.81-6,1.11a26,26,0,0,0,7-19.95l1.61-.05a18.88,18.88,0,0,0,.67,3q1.71,6.15,3.89,12.17Z" transform="translate(-101.73 -163.45)"/><path class="cls-67" d="M239.42,287.17a5.28,5.28,0,0,1-.52-1.1,6.84,6.84,0,0,1-.35-2.69,39.35,39.35,0,0,1,1.34-5.73,7.81,7.81,0,0,0,.08-3.81,39.27,39.27,0,0,0-1.74-3.65,6.74,6.74,0,0,1-.45-3.44,13.38,13.38,0,0,1,2.66-5.67l.52-.78c1.36-2,2.64-4.32,2.34-6.72l-.38-.15c.08-.2.16-.41.23-.61l.15.06a8.47,8.47,0,0,1,2.89,7.43c-.32,1.79-1.38,3.41-1.9,5.14a6.63,6.63,0,0,0-.29,1.46c-.18,2.58,1.41,4.88,2.58,7.18a16.46,16.46,0,0,1,1.82,5.78,10,10,0,0,1-1.11,5.9,6.23,6.23,0,0,1-2.72,2.68,4.25,4.25,0,0,1-3.76,0A3.83,3.83,0,0,1,239.42,287.17Z" transform="translate(-101.73 -163.45)"/></g></g></svg>